<?xml version="1.0" encoding="UTF-8" standalone="no"?><svg xmlns="http://www.w3.org/2000/svg" xmlns:xlink="http://www.w3.org/1999/xlink" contentScriptType="application/ecmascript" contentStyleType="text/css" height="1444px" preserveAspectRatio="none" style="width:3021px;height:1444px;background:#FFFFFF;" version="1.1" viewBox="0 0 3021 1444" width="3021px" zoomAndPan="magnify"><defs><filter height="300%" id="f10lpfzcuczlv9" width="300%" x="-1" y="-1"><feGaussianBlur result="blurOut" stdDeviation="2.0"/><feColorMatrix in="blurOut" result="blurOut2" type="matrix" values="0 0 0 0 0 0 0 0 0 0 0 0 0 0 0 0 0 0 .4 0"/><feOffset dx="4.0" dy="4.0" in="blurOut2" result="blurOut3"/><feBlend in="SourceGraphic" in2="blurOut3" mode="normal"/></filter></defs><g><!--MD5=[c7b92a0097228a214bad925eafaa4b71]
cluster HomePage--><rect fill="#FEFECE" filter="url(#f10lpfzcuczlv9)" height="487" rx="12.5" ry="12.5" style="stroke:#A80036;stroke-width:1.5;" width="419" x="1031" y="81"/><rect fill="#FFFFFF" height="454.7031" rx="12.5" ry="12.5" style="stroke:#FFFFFF;stroke-width:1.0;" width="413" x="1034" y="110.2969"/><line style="stroke:#A80036;stroke-width:1.5;" x1="1031" x2="1450" y1="107.2969" y2="107.2969"/><text fill="#000000" font-family="sans-serif" font-size="14" lengthAdjust="spacing" textLength="76" x="1202.5" y="97.9951">HomePage</text><!--MD5=[1bf8ca4886f6784565f0c8e1d588733d]
cluster CreatePost--><rect fill="#FEFECE" filter="url(#f10lpfzcuczlv9)" height="980" rx="12.5" ry="12.5" style="stroke:#A80036;stroke-width:1.5;" width="415" x="2594" y="452"/><rect fill="#FFFFFF" height="947.7031" rx="12.5" ry="12.5" style="stroke:#FFFFFF;stroke-width:1.0;" width="409" x="2597" y="481.2969"/><line style="stroke:#A80036;stroke-width:1.5;" x1="2594" x2="3009" y1="478.2969" y2="478.2969"/><text fill="#000000" font-family="sans-serif" font-size="14" lengthAdjust="spacing" textLength="77" x="2763" y="468.9951">CreatePost</text><!--MD5=[9b9ba77cffee8263ae5063f26c7bd0c2]
cluster SearchLoggedOut--><rect fill="#FEFECE" filter="url(#f10lpfzcuczlv9)" height="700" rx="12.5" ry="12.5" style="stroke:#A80036;stroke-width:1.5;" width="690" x="7" y="452"/><rect fill="#FFFFFF" height="667.7031" rx="12.5" ry="12.5" style="stroke:#FFFFFF;stroke-width:1.0;" width="684" x="10" y="481.2969"/><line style="stroke:#A80036;stroke-width:1.5;" x1="7" x2="697" y1="478.2969" y2="478.2969"/><text fill="#000000" font-family="sans-serif" font-size="14" lengthAdjust="spacing" textLength="125" x="289.5" y="468.9951">SearchLoggedOut</text><!--MD5=[19093523f03f2763a257d2637c4ba5cf]
cluster SearchLoggedIn--><rect fill="#FEFECE" filter="url(#f10lpfzcuczlv9)" height="664" rx="12.5" ry="12.5" style="stroke:#A80036;stroke-width:1.5;" width="676" x="737" y="633"/><rect fill="#FFFFFF" height="631.7031" rx="12.5" ry="12.5" style="stroke:#FFFFFF;stroke-width:1.0;" width="670" x="740" y="662.2969"/><line style="stroke:#A80036;stroke-width:1.5;" x1="737" x2="1413" y1="659.2969" y2="659.2969"/><text fill="#000000" font-family="sans-serif" font-size="14" lengthAdjust="spacing" textLength="112" x="1019" y="649.9951">SearchLoggedIn</text><!--MD5=[b475b4fba3e67757bf1e873a3a006f6c]
cluster AccountInfo--><rect fill="#FEFECE" filter="url(#f10lpfzcuczlv9)" height="493" rx="12.5" ry="12.5" style="stroke:#A80036;stroke-width:1.5;" width="946" x="1607" y="633"/><rect fill="#FFFFFF" height="460.7031" rx="12.5" ry="12.5" style="stroke:#FFFFFF;stroke-width:1.0;" width="940" x="1610" y="662.2969"/><line style="stroke:#A80036;stroke-width:1.5;" x1="1607" x2="2553" y1="659.2969" y2="659.2969"/><text fill="#000000" font-family="sans-serif" font-size="14" lengthAdjust="spacing" textLength="82" x="2039" y="649.9951">AccountInfo</text><ellipse cx="1099" cy="153" fill="#000000" filter="url(#f10lpfzcuczlv9)" rx="10" ry="10" style="stroke:none;stroke-width:1.0;"/><rect fill="#FEFECE" filter="url(#f10lpfzcuczlv9)" height="40" rx="12.5" ry="12.5" style="stroke:#A80036;stroke-width:1.5;" width="87" x="1055.5" y="224"/><text fill="#000000" font-family="sans-serif" font-size="14" lengthAdjust="spacing" textLength="77" x="1060.5" y="248.8467">LoggedOut</text><rect fill="#FEFECE" filter="url(#f10lpfzcuczlv9)" height="40" rx="12.5" ry="12.5" style="stroke:#A80036;stroke-width:1.5;" width="160" x="1055" y="341"/><text fill="#000000" font-family="sans-serif" font-size="14" lengthAdjust="spacing" textLength="150" x="1060" y="365.8467">ModalLoginFromLogin</text><rect fill="#FEFECE" filter="url(#f10lpfzcuczlv9)" height="40" rx="12.5" ry="12.5" style="stroke:#A80036;stroke-width:1.5;" width="147" x="1260.5" y="341"/><text fill="#000000" font-family="sans-serif" font-size="14" lengthAdjust="spacing" textLength="137" x="1265.5" y="365.8467">ModalLoginFromSell</text><rect fill="#FEFECE" filter="url(#f10lpfzcuczlv9)" height="40" rx="12.5" ry="12.5" style="stroke:#A80036;stroke-width:1.5;" width="74" x="1055" y="504"/><text fill="#000000" font-family="sans-serif" font-size="14" lengthAdjust="spacing" textLength="64" x="1060" y="528.8467">LoggedIn</text><ellipse cx="2801" cy="524" fill="#000000" filter="url(#f10lpfzcuczlv9)" rx="10" ry="10" style="stroke:none;stroke-width:1.0;"/><rect fill="#FEFECE" filter="url(#f10lpfzcuczlv9)" height="40" rx="12.5" ry="12.5" style="stroke:#A80036;stroke-width:1.5;" width="94" x="2754" y="685"/><text fill="#000000" font-family="sans-serif" font-size="14" lengthAdjust="spacing" textLength="84" x="2759" y="709.8467">ScanOrType</text><rect fill="#FEFECE" filter="url(#f10lpfzcuczlv9)" height="40" rx="12.5" ry="12.5" style="stroke:#A80036;stroke-width:1.5;" width="118" x="2828" y="919"/><text fill="#000000" font-family="sans-serif" font-size="14" lengthAdjust="spacing" textLength="108" x="2833" y="943.8467">IsThisYourBook</text><rect fill="#FEFECE" filter="url(#f10lpfzcuczlv9)" height="40" rx="12.5" ry="12.5" style="stroke:#A80036;stroke-width:1.5;" width="74" x="2626" y="802"/><text fill="#000000" font-family="sans-serif" font-size="14" lengthAdjust="spacing" textLength="64" x="2631" y="826.8467">Scanning</text><rect fill="#FEFECE" filter="url(#f10lpfzcuczlv9)" height="40" rx="12.5" ry="12.5" style="stroke:#A80036;stroke-width:1.5;" width="134" x="2681" y="1062"/><text fill="#000000" font-family="sans-serif" font-size="14" lengthAdjust="spacing" textLength="124" x="2686" y="1086.8467">UploadBookCover</text><rect fill="#FEFECE" filter="url(#f10lpfzcuczlv9)" height="40" rx="12.5" ry="12.5" style="stroke:#A80036;stroke-width:1.5;" width="67" x="2672.5" y="1228"/><text fill="#000000" font-family="sans-serif" font-size="14" lengthAdjust="spacing" textLength="57" x="2677.5" y="1252.8467">SetPrice</text><rect fill="#FEFECE" filter="url(#f10lpfzcuczlv9)" height="40" rx="12.5" ry="12.5" style="stroke:#A80036;stroke-width:1.5;" width="96" x="2644" y="1368"/><text fill="#000000" font-family="sans-serif" font-size="14" lengthAdjust="spacing" textLength="86" x="2649" y="1392.8467">PostCreated</text><ellipse cx="423" cy="524" fill="#000000" filter="url(#f10lpfzcuczlv9)" rx="10" ry="10" style="stroke:none;stroke-width:1.0;"/><rect fill="#FEFECE" filter="url(#f10lpfzcuczlv9)" height="40" rx="12.5" ry="12.5" style="stroke:#A80036;stroke-width:1.5;" width="187" x="329.5" y="685"/><text fill="#000000" font-family="sans-serif" font-size="14" lengthAdjust="spacing" textLength="177" x="334.5" y="709.8467">SearchResultsLoggedOut</text><rect fill="#FEFECE" filter="url(#f10lpfzcuczlv9)" height="40" rx="12.5" ry="12.5" style="stroke:#A80036;stroke-width:1.5;" width="137" x="535.5" y="802"/><text fill="#000000" font-family="sans-serif" font-size="14" lengthAdjust="spacing" textLength="127" x="540.5" y="826.8467">CourseLoggedOut</text><rect fill="#FEFECE" filter="url(#f10lpfzcuczlv9)" height="40" rx="12.5" ry="12.5" style="stroke:#A80036;stroke-width:1.5;" width="123" x="455.5" y="919"/><text fill="#000000" font-family="sans-serif" font-size="14" lengthAdjust="spacing" textLength="113" x="460.5" y="943.8467">BookLoggedOut</text><g id="SearchLoggedOut.ViewPostingModalLogin"><rect fill="#FEFECE" filter="url(#f10lpfzcuczlv9)" height="92.1719" rx="12.5" ry="12.5" style="stroke:#A80036;stroke-width:1.5;" width="216" x="409" y="1036"/><line style="stroke:#A80036;stroke-width:1.5;" x1="409" x2="625" y1="1062.2969" y2="1062.2969"/><text fill="#000000" font-family="sans-serif" font-size="14" lengthAdjust="spacing" textLength="162" x="436" y="1053.9951">ViewPostingModalLogin</text><text fill="#000000" font-family="sans-serif" font-size="12" lengthAdjust="spacing" textLength="171" x="414" y="1078.4355">User needs to be logged in</text><text fill="#000000" font-family="sans-serif" font-size="12" lengthAdjust="spacing" textLength="196" x="414" y="1092.4043">to view a posting since they will</text><text fill="#000000" font-family="sans-serif" font-size="12" lengthAdjust="spacing" textLength="171" x="414" y="1106.373">be able to see other user's</text><text fill="#000000" font-family="sans-serif" font-size="12" lengthAdjust="spacing" textLength="127" x="414" y="1120.3418">contact information.</text></g><ellipse cx="1132" cy="705" fill="#000000" filter="url(#f10lpfzcuczlv9)" rx="10" ry="10" style="stroke:none;stroke-width:1.0;"/><rect fill="#FEFECE" filter="url(#f10lpfzcuczlv9)" height="40" rx="12.5" ry="12.5" style="stroke:#A80036;stroke-width:1.5;" width="110" x="1077" y="802"/><text fill="#000000" font-family="sans-serif" font-size="14" lengthAdjust="spacing" textLength="100" x="1082" y="826.8467">SearchResults</text><rect fill="#FEFECE" filter="url(#f10lpfzcuczlv9)" height="40" rx="12.5" ry="12.5" style="stroke:#A80036;stroke-width:1.5;" width="124" x="1265" y="919"/><text fill="#000000" font-family="sans-serif" font-size="14" lengthAdjust="spacing" textLength="114" x="1270" y="943.8467">CourseLoggedIn</text><rect fill="#FEFECE" filter="url(#f10lpfzcuczlv9)" height="40" rx="12.5" ry="12.5" style="stroke:#A80036;stroke-width:1.5;" width="110" x="1160" y="1062"/><text fill="#000000" font-family="sans-serif" font-size="14" lengthAdjust="spacing" textLength="100" x="1165" y="1086.8467">BookLoggedIn</text><g id="SearchLoggedOut.PostingLoggedIn"><rect fill="#FEFECE" filter="url(#f10lpfzcuczlv9)" height="50" rx="12.5" ry="12.5" style="stroke:#A80036;stroke-width:1.5;" width="136" x="1060" y="1223"/><line style="stroke:#A80036;stroke-width:1.5;" x1="1060" x2="1196" y1="1249.2969" y2="1249.2969"/><text fill="#000000" font-family="sans-serif" font-size="14" lengthAdjust="spacing" textLength="116" x="1070" y="1240.9951">PostingLoggedIn</text></g><ellipse cx="2106" cy="705" fill="#000000" filter="url(#f10lpfzcuczlv9)" rx="10" ry="10" style="stroke:none;stroke-width:1.0;"/><rect fill="#FEFECE" filter="url(#f10lpfzcuczlv9)" height="40" rx="12.5" ry="12.5" style="stroke:#A80036;stroke-width:1.5;" width="129" x="2041.5" y="802"/><text fill="#000000" font-family="sans-serif" font-size="14" lengthAdjust="spacing" textLength="119" x="2046.5" y="826.8467">AccountOverview</text><rect fill="#FEFECE" filter="url(#f10lpfzcuczlv9)" height="40" rx="12.5" ry="12.5" style="stroke:#A80036;stroke-width:1.5;" width="67" x="1828.5" y="919"/><text fill="#000000" font-family="sans-serif" font-size="14" lengthAdjust="spacing" textLength="57" x="1833.5" y="943.8467">EditPost</text><rect fill="#FEFECE" filter="url(#f10lpfzcuczlv9)" height="40" rx="12.5" ry="12.5" style="stroke:#A80036;stroke-width:1.5;" width="154" x="2345" y="919"/><text fill="#000000" font-family="sans-serif" font-size="14" lengthAdjust="spacing" textLength="144" x="2350" y="943.8467">ModalDeleteAccount</text><rect fill="#FEFECE" filter="url(#f10lpfzcuczlv9)" height="40" rx="12.5" ry="12.5" style="stroke:#A80036;stroke-width:1.5;" width="122" x="2395" y="1062"/><text fill="#000000" font-family="sans-serif" font-size="14" lengthAdjust="spacing" textLength="112" x="2400" y="1086.8467">AccountDeleted</text><ellipse cx="1442" cy="16" fill="#000000" filter="url(#f10lpfzcuczlv9)" rx="10" ry="10" style="stroke:none;stroke-width:1.0;"/><!--MD5=[1e508aa731f3bd8c9b04451369c829ed]
link *start to HomePage--><path d="M1442,26.28 C1442,33.785 1442,45.21 1442,58.1711 C1442,64.6516 1442,71.5162 1442,78.4668 C1442,78.9012 1442,79.336 1442,79.771 C1442,79.9885 1442,80.2061 1442,80.4237 " fill="none" id="*start-to-HomePage" style="stroke:#A80036;stroke-width:1.0;"/><polygon fill="#A80036" points="1442,80.4237,1446,71.4237,1442,75.4237,1438,71.4237,1442,80.4237" style="stroke:#A80036;stroke-width:1.0;"/><!--MD5=[ff17c4a6534f1f0a23b9aa32dae5120f]
link *start*HomePage to LoggedOut--><path d="M1099,163.19 C1099,176.18 1099,200.38 1099,218.73 " fill="none" id="*start*HomePage-to-LoggedOut" style="stroke:#A80036;stroke-width:1.0;"/><polygon fill="#A80036" points="1099,223.74,1103,214.74,1099,218.74,1095,214.74,1099,223.74" style="stroke:#A80036;stroke-width:1.0;"/><!--MD5=[08fae573285c98fd71cffe876e7c4c2a]
link LoggedOut to ModalLoginFromLogin--><path d="M1093.96,264.05 C1091.31,277.54 1089.61,295.86 1095,311 C1098.3,320.25 1104.17,329.02 1110.42,336.51 " fill="none" id="LoggedOut-to-ModalLoginFromLogin" style="stroke:#A80036;stroke-width:1.0;"/><polygon fill="#A80036" points="1113.92,340.54,1111.0443,331.1203,1110.6437,336.763,1105.0011,336.3624,1113.92,340.54" style="stroke:#A80036;stroke-width:1.0;"/><text fill="#000000" font-family="sans-serif" font-size="13" lengthAdjust="spacing" textLength="71" x="1096" y="307.0669">Click Log In</text><!--MD5=[0c830dc986c004fa4449b263e96cbb4e]
link LoggedOut to ModalLoginFromSell--><path d="M1138.07,264.12 C1180,284.64 1246.46,317.16 1290.15,338.54 " fill="none" id="LoggedOut-to-ModalLoginFromSell" style="stroke:#A80036;stroke-width:1.0;"/><polygon fill="#A80036" points="1294.84,340.84,1288.5209,333.2856,1290.3508,338.6383,1284.9982,340.4683,1294.84,340.84" style="stroke:#A80036;stroke-width:1.0;"/><text fill="#000000" font-family="sans-serif" font-size="13" lengthAdjust="spacing" textLength="205" x="1231" y="307.0669">Click "Sell your used textbooks!"</text><!--MD5=[8d7ea24435014181c0b54af6f86c7a23]
link ModalLoginFromLogin to LoggedIn--><path d="M1129.9,381.1 C1122.04,410.51 1107,466.85 1098.41,498.98 " fill="none" id="ModalLoginFromLogin-to-LoggedIn" style="stroke:#A80036;stroke-width:1.0;"/><polygon fill="#A80036" points="1097.09,503.92,1103.2655,496.2477,1098.373,499.0874,1095.5333,494.1949,1097.09,503.92" style="stroke:#A80036;stroke-width:1.0;"/><text fill="#000000" font-family="sans-serif" font-size="13" lengthAdjust="spacing" textLength="326" x="1123" y="424.0669">Enter MacID, click login, then access the Magic Link</text><!--MD5=[349c4d932a830f3c2e6c7665b3242d68]
link ModalLoginFromSell to CreatePost--><path d="M1407.65,371.35 C1542.435,388.465 1839.22,426.1475 2103.205,459.665 C2235.1975,476.4238 2358.99,492.1413 2450.2325,503.7259 C2495.8538,509.5183 2533.3375,514.2774 2559.64,517.6169 C2572.7913,519.2867 2583.1472,520.6015 2590.3273,521.5131 C2591.2249,521.6271 2592.0728,521.7347 2592.8703,521.836 " fill="none" id="ModalLoginFromSell-to-CreatePost" style="stroke:#A80036;stroke-width:1.0;"/><polygon fill="#A80036" points="2592.8703,521.836,2584.4458,516.7343,2587.9101,521.2062,2583.4382,524.6706,2592.8703,521.836" style="stroke:#A80036;stroke-width:1.0;"/><text fill="#000000" font-family="sans-serif" font-size="13" lengthAdjust="spacing" textLength="326" x="1818" y="424.0669">Enter MacID, click login, then access the Magic Link</text><!--MD5=[94e1f52e08607ae0392d7f24affc5b86]
link LoggedOut to SearchLoggedOut--><path d="M1055.43,254.88 C936.28,282.07 595.19,360.92 314,436 C297.5463,440.3925 280.6147,445.0213 263.572,449.7616 C261.4417,450.3541 259.3096,450.9484 257.1765,451.5442 C256.6432,451.6932 256.1099,451.8422 255.5765,451.9913 " fill="none" id="LoggedOut-to-SearchLoggedOut" style="stroke:#A80036;stroke-width:1.0;"/><polygon fill="#A80036" points="255.5765,451.9913,265.3212,453.4202,260.3918,450.645,263.1671,445.7157,255.5765,451.9913" style="stroke:#A80036;stroke-width:1.0;"/><text fill="#000000" font-family="sans-serif" font-size="13" lengthAdjust="spacing" textLength="227" x="685" y="365.5669">Enter search query and click search</text><!--MD5=[2b8b7ce42bd1a1207e86f283828416df]
link LoggedIn to SearchLoggedIn--><path d="M1054.67,525.85 C998.8,528.84 892.29,541.35 820,592 C807.925,600.46 797.2513,611.5388 788.0203,623.435 C785.7126,626.4091 783.495,629.4342 781.3683,632.4823 " fill="none" id="LoggedIn-to-SearchLoggedIn" style="stroke:#A80036;stroke-width:1.0;"/><polygon fill="#A80036" points="781.3683,632.4823,789.7986,627.3902,784.2293,628.3818,783.2377,622.8125,781.3683,632.4823" style="stroke:#A80036;stroke-width:1.0;"/><text fill="#000000" font-family="sans-serif" font-size="13" lengthAdjust="spacing" textLength="227" x="821" y="605.0669">Enter search query and click search</text><!--MD5=[8fcf12f9ab95b55eaea4ecc605e565ee]
link LoggedIn to CreatePost--><path d="M1129.33,524 C1244.23,524 1605.165,524 1940.9275,524 C2108.8088,524 2270.3969,524 2391.7909,524 C2452.488,524 2503.1365,524 2539.4989,524 C2557.6801,524 2572.2897,524 2582.7981,524 C2585.4252,524 2587.796,524 2589.9022,524 C2590.9553,524 2591.9422,524 2592.862,524 " fill="none" id="LoggedIn-to-CreatePost" style="stroke:#A80036;stroke-width:1.0;"/><polygon fill="#A80036" points="2592.862,524,2583.862,520,2587.862,524,2583.862,528,2592.862,524" style="stroke:#A80036;stroke-width:1.0;"/><text fill="#000000" font-family="sans-serif" font-size="13" lengthAdjust="spacing" textLength="205" x="1762.82" y="517.0669">Click "Sell your used textbooks!"</text><!--MD5=[fb34fa33ea60a0838266b67c9938181c]
link LoggedIn to AccountInfo--><path d="M1084.29,544.17 C1078.01,563.29 1072.6,592.18 1089,609 C1101.26,621.57 1387.82,613.36 1405,617 C1453.64,627.32 1505.2725,648.5575 1545.1688,667.465 C1565.1169,676.9188 1582.1309,685.79 1594.3698,692.4228 C1597.4296,694.081 1600.1908,695.5993 1602.6249,696.9518 C1603.8419,697.6281 1604.9772,698.2629 1606.027,698.8531 C1606.2895,699.0006 1606.5466,699.1453 1606.7983,699.2872 " fill="none" id="LoggedIn-to-AccountInfo" style="stroke:#A80036;stroke-width:1.0;"/><polygon fill="#A80036" points="1606.7983,699.2872,1600.9224,691.3832,1602.4427,696.8319,1596.9939,698.3522,1606.7983,699.2872" style="stroke:#A80036;stroke-width:1.0;"/><text fill="#000000" font-family="sans-serif" font-size="13" lengthAdjust="spacing" textLength="120" x="1090" y="605.0669">Click profile picture</text><!--MD5=[08505626a9a09760ca180f8e754a25bb]
link *start*CreatePost to ScanOrType--><path d="M2801,534.12 C2801,560.85 2801,639.62 2801,679.81 " fill="none" id="*start*CreatePost-to-ScanOrType" style="stroke:#A80036;stroke-width:1.0;"/><polygon fill="#A80036" points="2801,684.98,2805,675.98,2801,679.98,2797,675.98,2801,684.98" style="stroke:#A80036;stroke-width:1.0;"/><!--MD5=[5564e78deb4feef86b47181e28d44b51]
link ScanOrType to IsThisYourBook--><path d="M2820.58,725.24 C2848.37,754.09 2898,811.63 2917,872 C2921.58,886.54 2915.11,902.1 2907.02,914.45 " fill="none" id="ScanOrType-to-IsThisYourBook" style="stroke:#A80036;stroke-width:1.0;"/><polygon fill="#A80036" points="2903.98,918.85,2912.387,913.7195,2906.8223,914.7365,2905.8054,909.1718,2903.98,918.85" style="stroke:#A80036;stroke-width:1.0;"/><text fill="#000000" font-family="sans-serif" font-size="13" lengthAdjust="spacing" textLength="80" x="2905" y="826.5669">Type in ISBN</text><!--MD5=[5535a0cac7a6a169a81d7625bb9895df]
link IsThisYourBook to ScanOrType--><path d="M2902.52,918.93 C2911.93,904.91 2920.32,885.95 2910,872 C2882.91,835.38 2840.54,877.5 2812,842 C2798.65,825.4 2798.63,764.98 2799.8,730.52 " fill="none" id="IsThisYourBook-to-ScanOrType" style="stroke:#A80036;stroke-width:1.0;"/><polygon fill="#A80036" points="2799.99,725.22,2795.6587,734.0653,2799.8044,730.2166,2803.6532,734.3623,2799.99,725.22" style="stroke:#A80036;stroke-width:1.0;"/><text fill="#000000" font-family="sans-serif" font-size="13" lengthAdjust="spacing" textLength="61" x="2813" y="826.5669">Click "No"</text><!--MD5=[991504901f1527d390ed0791ff6303a6]
link ScanOrType to Scanning--><path d="M2753.72,708.5 C2721,713 2679.59,724.78 2658,755 C2649.43,766.99 2650.7,783.53 2654.11,797.06 " fill="none" id="ScanOrType-to-Scanning" style="stroke:#A80036;stroke-width:1.0;"/><polygon fill="#A80036" points="2655.44,801.89,2656.9091,792.1513,2654.1136,797.0692,2649.1957,794.2736,2655.44,801.89" style="stroke:#A80036;stroke-width:1.0;"/><text fill="#000000" font-family="sans-serif" font-size="13" lengthAdjust="spacing" textLength="132" x="2659" y="768.0669">Click "Scan Barcode"</text><!--MD5=[c6467867447253f9f2468e2aa27bf882]
link Scanning to IsThisYourBook--><path d="M2655.09,842.16 C2650.52,856.59 2647.52,876.04 2658,889 C2678.42,914.25 2762.54,927.07 2822.9,933.14 " fill="none" id="Scanning-to-IsThisYourBook" style="stroke:#A80036;stroke-width:1.0;"/><polygon fill="#A80036" points="2827.93,933.63,2819.3741,928.7519,2822.955,933.1311,2818.5758,936.712,2827.93,933.63" style="stroke:#A80036;stroke-width:1.0;"/><text fill="#000000" font-family="sans-serif" font-size="13" lengthAdjust="spacing" textLength="246" x="2659" y="885.0669">Computer scans the textbook barcode</text><!--MD5=[a945e30082d9febfa90e7763eddf8c0c]
link IsThisYourBook to UploadBookCover--><path d="M2868.25,959.02 C2842.86,984.77 2797.61,1030.68 2770.44,1058.24 " fill="none" id="IsThisYourBook-to-UploadBookCover" style="stroke:#A80036;stroke-width:1.0;"/><polygon fill="#A80036" points="2766.89,1061.84,2776.0535,1058.2302,2770.3968,1058.276,2770.351,1052.6193,2766.89,1061.84" style="stroke:#A80036;stroke-width:1.0;"/><text fill="#000000" font-family="sans-serif" font-size="13" lengthAdjust="spacing" textLength="65" x="2839" y="1002.0669">Click "Yes"</text><!--MD5=[3ffc17978002a7b069a585e19fc6cad9]
link UploadBookCover to SetPrice--><path d="M2743.1,1102.13 C2735.42,1132.13 2720.55,1190.18 2712.16,1222.95 " fill="none" id="UploadBookCover-to-SetPrice" style="stroke:#A80036;stroke-width:1.0;"/><polygon fill="#A80036" points="2710.87,1227.99,2716.9817,1220.2668,2712.1129,1223.1469,2709.2328,1218.2782,2710.87,1227.99" style="stroke:#A80036;stroke-width:1.0;"/><text fill="#000000" font-family="sans-serif" font-size="13" lengthAdjust="spacing" textLength="213" x="2724" y="1189.0669">Upload a photo of the book cover</text><!--MD5=[11ac26e85453e214b92fa85a8bc56fd0]
link SetPrice to PostCreated--><path d="M2704.05,1268.19 C2701.55,1292.91 2697.19,1335.88 2694.45,1362.81 " fill="none" id="SetPrice-to-PostCreated" style="stroke:#A80036;stroke-width:1.0;"/><polygon fill="#A80036" points="2693.93,1367.97,2698.8324,1359.4279,2694.443,1362.9964,2690.8746,1358.6071,2693.93,1367.97" style="stroke:#A80036;stroke-width:1.0;"/><text fill="#000000" font-family="sans-serif" font-size="13" lengthAdjust="spacing" textLength="216" x="2699" y="1334.0669">Enter description and asking price</text><!--MD5=[0c7cf63a9d7e9bf991f0e656e111c64b]
link PostCreated to AccountInfo--><path d="M2643.8,1386.7 C2417.56,1384.69 1472,1369.1 1472,1249 C1472,821 1472,821 1472,821 C1472,780.86 1506.6425,752.375 1541.8263,733.795 C1559.4181,724.505 1577.1453,717.6912 1590.7452,713.135 C1594.1451,711.9959 1597.2871,710.998 1600.1046,710.1377 C1601.5133,709.7075 1602.8409,709.3118 1604.079,708.9501 C1604.698,708.7692 1605.2947,708.5968 1605.868,708.4329 C1606.1546,708.3509 1606.4354,708.2711 1606.7102,708.1933 " fill="none" id="PostCreated-to-AccountInfo" style="stroke:#A80036;stroke-width:1.0;"/><polygon fill="#A80036" points="1606.7102,708.1933,1596.9612,706.7945,1601.8991,709.5545,1599.1391,714.4923,1606.7102,708.1933" style="stroke:#A80036;stroke-width:1.0;"/><text fill="#000000" font-family="sans-serif" font-size="13" lengthAdjust="spacing" textLength="141" x="1473" y="1002.0669">Click "Go to my posts"</text><!--MD5=[962e4735b5e9b01b80bee600da14a89c]
link *start*SearchLoggedOut to SearchResultsLoggedOut--><path d="M423,534.12 C423,560.85 423,639.62 423,679.81 " fill="none" id="*start*SearchLoggedOut-to-SearchResultsLoggedOut" style="stroke:#A80036;stroke-width:1.0;"/><polygon fill="#A80036" points="423,684.98,427,675.98,423,679.98,419,675.98,423,684.98" style="stroke:#A80036;stroke-width:1.0;"/><!--MD5=[0705083f6294694e19fa30e4b46d0109]
link SearchResultsLoggedOut to CourseLoggedOut--><path d="M453.3,725.25 C485.37,745.63 535.9,777.73 569.49,799.07 " fill="none" id="SearchResultsLoggedOut-to-CourseLoggedOut" style="stroke:#A80036;stroke-width:1.0;"/><polygon fill="#A80036" points="573.91,801.88,568.4574,793.6782,569.6893,799.1993,564.1683,800.4313,573.91,801.88" style="stroke:#A80036;stroke-width:1.0;"/><text fill="#000000" font-family="sans-serif" font-size="13" lengthAdjust="spacing" textLength="108" x="526" y="768.0669">Click on a course</text><!--MD5=[fcc8866bc7486bb8c8979812966ac09d]
link SearchResultsLoggedOut to BookLoggedOut--><path d="M416.45,725.28 C408.21,753.29 397.65,805.84 420,842 C435.67,867.36 458.43,851.42 480,872 C492.28,883.71 501.58,900.4 507.79,914.07 " fill="none" id="SearchResultsLoggedOut-to-BookLoggedOut" style="stroke:#A80036;stroke-width:1.0;"/><polygon fill="#A80036" points="509.94,918.95,509.9828,909.1012,507.9292,914.3722,502.6582,912.3186,509.94,918.95" style="stroke:#A80036;stroke-width:1.0;"/><text fill="#000000" font-family="sans-serif" font-size="13" lengthAdjust="spacing" textLength="96" x="421" y="826.5669">Click on a book</text><!--MD5=[a68ee0f08b71c1441e233818f7e2b13f]
link SearchResultsLoggedOut to ViewPostingModalLogin--><path d="M407.13,725.25 C381.64,758.63 336.51,829.37 358,889 C378.24,945.18 422.85,996.57 459.68,1032.02 " fill="none" id="SearchResultsLoggedOut-to-ViewPostingModalLogin" style="stroke:#A80036;stroke-width:1.0;"/><polygon fill="#A80036" points="463.67,1035.83,459.8944,1026.7336,460.0429,1032.3885,454.388,1032.537,463.67,1035.83" style="stroke:#A80036;stroke-width:1.0;"/><text fill="#000000" font-family="sans-serif" font-size="13" lengthAdjust="spacing" textLength="112" x="359" y="885.0669">Click on a posting</text><!--MD5=[fa9c4ff47e12d388bf583e9ca42a7e4e]
link BookLoggedOut to ViewPostingModalLogin--><path d="M517,959.02 C517,977.33 517,1005.84 517,1030.7 " fill="none" id="BookLoggedOut-to-ViewPostingModalLogin" style="stroke:#A80036;stroke-width:1.0;"/><polygon fill="#A80036" points="517,1035.94,521,1026.94,517,1030.94,513,1026.94,517,1035.94" style="stroke:#A80036;stroke-width:1.0;"/><text fill="#000000" font-family="sans-serif" font-size="13" lengthAdjust="spacing" textLength="112" x="518" y="1002.0669">Click on a posting</text><!--MD5=[e249d519cbc438a3e652bff7bf33037f]
link CourseLoggedOut to BookLoggedOut--><path d="M589.44,842.25 C574.38,862.15 550.86,893.24 534.73,914.56 " fill="none" id="CourseLoggedOut-to-BookLoggedOut" style="stroke:#A80036;stroke-width:1.0;"/><polygon fill="#A80036" points="531.61,918.69,540.2291,913.9245,534.626,914.702,533.8484,909.0989,531.61,918.69" style="stroke:#A80036;stroke-width:1.0;"/><text fill="#000000" font-family="sans-serif" font-size="13" lengthAdjust="spacing" textLength="96" x="567" y="885.0669">Click on a book</text><!--MD5=[22fd5ab2430aa10cb86477d3fc06d4eb]
link ViewPostingModalLogin to PostingLoggedIn--><path d="M600.34,1128.14 C645.75,1150.89 703.63,1176.98 758,1193 C858.34,1222.57 978.95,1236.31 1054.56,1242.43 " fill="none" id="ViewPostingModalLogin-to-PostingLoggedIn" style="stroke:#A80036;stroke-width:1.0;"/><polygon fill="#A80036" points="1059.93,1242.86,1051.2664,1238.1758,1054.945,1242.4732,1050.6476,1246.1518,1059.93,1242.86" style="stroke:#A80036;stroke-width:1.0;"/><text fill="#000000" font-family="sans-serif" font-size="13" lengthAdjust="spacing" textLength="326" x="759" y="1189.0669">Enter MacID, click login, then access the Magic Link</text><!--MD5=[2f3e57a9cb0fde8f53baf5e96efc8167]
link *start*SearchLoggedIn to SearchResults--><path d="M1132,715.02 C1132,732.42 1132,771.15 1132,796.65 " fill="none" id="*start*SearchLoggedIn-to-SearchResults" style="stroke:#A80036;stroke-width:1.0;"/><polygon fill="#A80036" points="1132,801.88,1136,792.88,1132,796.88,1128,792.88,1132,801.88" style="stroke:#A80036;stroke-width:1.0;"/><!--MD5=[586999de8379c893217b6a965c3335a0]
link SearchResults to CourseLoggedIn--><path d="M1164.64,842.25 C1199.33,862.71 1254.08,895 1290.26,916.33 " fill="none" id="SearchResults-to-CourseLoggedIn" style="stroke:#A80036;stroke-width:1.0;"/><polygon fill="#A80036" points="1294.58,918.88,1288.8576,910.8641,1290.2725,916.3412,1284.7955,917.7561,1294.58,918.88" style="stroke:#A80036;stroke-width:1.0;"/><text fill="#000000" font-family="sans-serif" font-size="13" lengthAdjust="spacing" textLength="108" x="1242" y="885.0669">Click on a course</text><!--MD5=[f33c1064c44e9730dd2b7b55f8d488e7]
link SearchResults to BookLoggedIn--><path d="M1129.29,842.14 C1126.34,870.45 1124.97,923.9 1150,959 C1167.31,983.28 1193.64,964.07 1210,989 C1223.05,1008.89 1222.63,1036.72 1219.98,1056.55 " fill="none" id="SearchResults-to-BookLoggedIn" style="stroke:#A80036;stroke-width:1.0;"/><polygon fill="#A80036" points="1219.22,1061.66,1224.4897,1053.3395,1219.9491,1056.7134,1216.5752,1052.1729,1219.22,1061.66" style="stroke:#A80036;stroke-width:1.0;"/><text fill="#000000" font-family="sans-serif" font-size="13" lengthAdjust="spacing" textLength="96" x="1151" y="943.5669">Click on a book</text><!--MD5=[c615a9e3050ebe5c36157ac31eb31195]
link SearchResults to PostingLoggedIn--><path d="M1125.2,842.1 C1114.72,872.64 1095.09,934.6 1088,989 C1077.15,1072.26 1102.95,1170.12 1118.04,1217.85 " fill="none" id="SearchResults-to-PostingLoggedIn" style="stroke:#A80036;stroke-width:1.0;"/><polygon fill="#A80036" points="1119.64,1222.87,1120.7035,1213.0787,1118.1146,1218.1084,1113.0849,1215.5194,1119.64,1222.87" style="stroke:#A80036;stroke-width:1.0;"/><text fill="#000000" font-family="sans-serif" font-size="13" lengthAdjust="spacing" textLength="112" x="1089" y="1002.0669">Click on a posting</text><!--MD5=[0b1f9c2c5d811cea74a5935af1b3fecd]
link BookLoggedIn to PostingLoggedIn--><path d="M1204.85,1102.13 C1189.68,1130.72 1161,1184.79 1143.29,1218.18 " fill="none" id="BookLoggedIn-to-PostingLoggedIn" style="stroke:#A80036;stroke-width:1.0;"/><polygon fill="#A80036" points="1140.76,1222.95,1148.5125,1216.8755,1143.104,1218.5335,1141.4461,1213.1251,1140.76,1222.95" style="stroke:#A80036;stroke-width:1.0;"/><text fill="#000000" font-family="sans-serif" font-size="13" lengthAdjust="spacing" textLength="112" x="1164" y="1189.0669">Click on a posting</text><!--MD5=[c067d7f7700e1692c1cf8113ea862ff9]
link CourseLoggedIn to BookLoggedIn--><path d="M1311.9,959.02 C1291.52,984.67 1255.27,1030.31 1233.35,1057.9 " fill="none" id="CourseLoggedIn-to-BookLoggedIn" style="stroke:#A80036;stroke-width:1.0;"/><polygon fill="#A80036" points="1230.22,1061.84,1238.9536,1057.2876,1233.333,1057.9273,1232.6933,1052.3067,1230.22,1061.84" style="stroke:#A80036;stroke-width:1.0;"/><text fill="#000000" font-family="sans-serif" font-size="13" lengthAdjust="spacing" textLength="96" x="1288" y="1002.0669">Click on a book</text><!--MD5=[ebdc1b5cd4da3d9aa575c2295c8f4027]
link *start*AccountInfo to AccountOverview--><path d="M2106,715.02 C2106,732.42 2106,771.15 2106,796.65 " fill="none" id="*start*AccountInfo-to-AccountOverview" style="stroke:#A80036;stroke-width:1.0;"/><polygon fill="#A80036" points="2106,801.88,2110,792.88,2106,796.88,2102,792.88,2106,801.88" style="stroke:#A80036;stroke-width:1.0;"/><!--MD5=[610fec26427d3153b24d940b8880afde]
link AccountOverview to AccountOverview--><path d="M2170.6,811.14 C2190.19,811.41 2205.5,815.03 2205.5,822 C2205.5,828.31 2192.92,831.88 2175.98,832.69 " fill="none" id="AccountOverview-to-AccountOverview" style="stroke:#A80036;stroke-width:1.0;"/><polygon fill="#A80036" points="2170.6,832.86,2179.7215,836.5745,2175.5975,832.7025,2179.4695,828.5785,2170.6,832.86" style="stroke:#A80036;stroke-width:1.0;"/><text fill="#000000" font-family="sans-serif" font-size="13" lengthAdjust="spacing" textLength="220" x="2211.5" y="826.5669">Click "Delete" on one of your posts</text><!--MD5=[36cdb35a4aa8998f4dd94a70064b6c8a]
link AccountOverview to EditPost--><path d="M2041.44,826.75 C1976.14,832.05 1881.68,844.38 1859,872 C1849.6,883.45 1850.45,900.14 1853.6,913.87 " fill="none" id="AccountOverview-to-EditPost" style="stroke:#A80036;stroke-width:1.0;"/><polygon fill="#A80036" points="1854.84,918.79,1856.5041,909.0827,1853.6105,913.9435,1848.7497,911.0499,1854.84,918.79" style="stroke:#A80036;stroke-width:1.0;"/><text fill="#000000" font-family="sans-serif" font-size="13" lengthAdjust="spacing" textLength="202" x="1860" y="885.0669">Click "Edit" on one of your posts</text><!--MD5=[fca00b52974d917f0f8491dd5b682001]
link EditPost to AccountOverview--><path d="M1895.86,937.78 C1939.48,935.86 2015.77,926.81 2067,889 C2081.24,878.49 2091.21,861.09 2097.5,846.8 " fill="none" id="EditPost-to-AccountOverview" style="stroke:#A80036;stroke-width:1.0;"/><polygon fill="#A80036" points="2099.49,842.08,2092.3035,848.8145,2097.5446,846.686,2099.6731,851.9272,2099.49,842.08" style="stroke:#A80036;stroke-width:1.0;"/><text fill="#000000" font-family="sans-serif" font-size="13" lengthAdjust="spacing" textLength="135" x="2083" y="885.0669">Click "Save Changes"</text><!--MD5=[fca00b52974d917f0f8491dd5b682001]
link EditPost to AccountOverview--><path d="M1828.19,936 C1769.02,931.31 1656.57,916.42 1696,872 C1718.13,847.06 1924.64,832.49 2035.85,826.39 " fill="none" id="EditPost-to-AccountOverview-1" style="stroke:#A80036;stroke-width:1.0;"/><polygon fill="#A80036" points="2041.07,826.11,2031.8664,822.6037,2036.0774,826.381,2032.3001,830.592,2041.07,826.11" style="stroke:#A80036;stroke-width:1.0;"/><text fill="#000000" font-family="sans-serif" font-size="13" lengthAdjust="spacing" textLength="146" x="1697" y="885.0669">Click "Cancel Changes"</text><!--MD5=[75f81306ece287de98ac700ebeb92b29]
link AccountOverview to ModalDeleteAccount--><path d="M2154.98,842.03 C2189.76,855.44 2237.62,873.66 2280,889 C2306.32,898.53 2335.54,908.68 2360.59,917.26 " fill="none" id="AccountOverview-to-ModalDeleteAccount" style="stroke:#A80036;stroke-width:1.0;"/><polygon fill="#A80036" points="2365.54,918.96,2358.315,912.2668,2360.8081,917.3446,2355.7303,919.8378,2365.54,918.96" style="stroke:#A80036;stroke-width:1.0;"/><text fill="#000000" font-family="sans-serif" font-size="13" lengthAdjust="spacing" textLength="141" x="2281" y="885.0669">Click "Delete Account"</text><!--MD5=[47a5c2967fa24b72fc131c1d1843ded2]
link ModalDeleteAccount to AccountOverview--><path d="M2430.03,918.96 C2434.77,904.4 2437.93,884.73 2427,872 C2395.29,835.09 2260.37,825.68 2175.86,823.46 " fill="none" id="ModalDeleteAccount-to-AccountOverview" style="stroke:#A80036;stroke-width:1.0;"/><polygon fill="#A80036" points="2170.62,823.33,2179.526,827.5352,2175.6187,823.4446,2179.7093,819.5373,2170.62,823.33" style="stroke:#A80036;stroke-width:1.0;"/><text fill="#000000" font-family="sans-serif" font-size="13" lengthAdjust="spacing" textLength="61" x="2434" y="885.0669">Click "No"</text><!--MD5=[e3e84b0e4d8e157a6279001b457be978]
link ModalDeleteAccount to AccountDeleted--><path d="M2426.59,959.02 C2432.69,984.35 2443.51,1029.19 2450.18,1056.87 " fill="none" id="ModalDeleteAccount-to-AccountDeleted" style="stroke:#A80036;stroke-width:1.0;"/><polygon fill="#A80036" points="2451.38,1061.84,2453.1584,1052.153,2450.2077,1056.9794,2445.3814,1054.0287,2451.38,1061.84" style="stroke:#A80036;stroke-width:1.0;"/><text fill="#000000" font-family="sans-serif" font-size="13" lengthAdjust="spacing" textLength="65" x="2437" y="1002.0669">Click "Yes"</text><!--MD5=[ec0b799e73d78b5a4d2c40fec777eb0d]
link AccountDeleted to HomePage--><path d="M2474.21,1061.99 C2486.73,1047.75 2502.56,1027.14 2511,1006 C2533.11,950.61 2533.27,923.96 2504,872 C2424.56,730.95 2312.57,759.13 2252,609 C2237.98,574.26 2259,562.46 2259,525 C2259,243 2259,243 2259,243 C2259,197.7 2057.93,175.4425 1855.2888,164.5138 C1753.9681,159.0494 1652.2547,156.4172 1575.0858,155.153 C1536.5013,154.5209 1504.053,154.2307 1480.858,154.0996 C1469.2605,154.034 1459.9763,154.0082 1453.3951,153.9992 C1452.5724,153.9981 1451.792,153.9972 1451.0546,153.9966 " fill="none" id="AccountDeleted-to-HomePage" style="stroke:#A80036;stroke-width:1.0;"/><polygon fill="#A80036" points="1451.0546,153.9966,1460.0511,158.0044,1456.0546,154.0009,1460.0581,150.0044,1451.0546,153.9966" style="stroke:#A80036;stroke-width:1.0;"/><text fill="#000000" font-family="sans-serif" font-size="13" lengthAdjust="spacing" textLength="179" x="2253" y="605.0669">Click "Return to home page"</text><!--MD5=[5562d983e9f304983b062d5cfe855bbc]
link CreatePost to AccountInfo--><path d="M2593.6893,530.0007 C2593.5609,530.0775 2593.4312,530.1551 2593.3002,530.2334 C2593.0382,530.3901 2592.771,530.5499 2592.4986,530.7127 C2591.409,531.3638 2590.2369,532.0629 2588.9882,532.8059 C2586.4909,534.292 2583.6873,535.9539 2580.6252,537.7594 C2568.3766,544.9813 2551.9906,554.5 2534.5163,564.25 C2499.5675,583.75 2460.265,604.175 2441,609 C2418.96,614.52 1639.71,601.6 1623,617 C1619.4863,620.2375 1616.7161,623.9955 1614.5597,628.0968 C1614.0207,629.1222 1613.5199,630.169 1613.0555,631.2344 C1612.8234,631.7672 1612.6002,632.3046 1612.386,632.8464 " fill="none" id="CreatePost-to-AccountInfo" style="stroke:#A80036;stroke-width:1.0;"/><polygon fill="#A80036" points="1612.386,632.8464,1619.4158,625.9485,1614.225,628.1968,1611.9766,623.006,1612.386,632.8464" style="stroke:#A80036;stroke-width:1.0;"/><text fill="#000000" font-family="sans-serif" font-size="13" lengthAdjust="spacing" textLength="120" x="2481" y="605.0669">Click profile picture</text><!--MD5=[7ff10ac2e3454863b8a8a9c0361e8124]
link SearchLoggedIn to AccountInfo--><path d="M974.4077,632.9049 C976.5279,632.4273 978.6495,631.9561 980.7718,631.4918 C985.0164,630.5631 989.2637,629.6618 993.5087,628.7908 C1010.4886,625.307 1027.43,622.31 1044,620 C1202.91,597.85 1247.51,589.34 1405,620 C1452.87,629.32 1503.635,649.555 1543.26,667.9437 C1563.0725,677.1381 1580.1,685.8709 1592.5881,692.547 C1595.7102,694.2161 1598.5485,695.7565 1601.0757,697.1435 C1602.3393,697.837 1603.5251,698.4922 1604.6297,699.1058 C1605.182,699.4127 1605.714,699.7091 1606.2253,699.9948 C1606.4809,700.1377 1606.7314,700.2778 1606.9766,700.4152 " fill="none" id="SearchLoggedIn-to-AccountInfo" style="stroke:#A80036;stroke-width:1.0;"/><polygon fill="#A80036" points="1606.9766,700.4152,1601.0808,692.526,1602.6148,697.9709,1597.1699,699.5049,1606.9766,700.4152" style="stroke:#A80036;stroke-width:1.0;"/><text fill="#000000" font-family="sans-serif" font-size="13" lengthAdjust="spacing" textLength="120" x="1459" y="605.0669">Click profile picture</text><!--MD5=[eecde9738b095d6797f61df3e6432797]
link AccountInfo to SearchLoggedIn--><path d="M1606.9766,700.4152 C1606.7314,700.2778 1606.4809,700.1377 1606.2253,699.9948 C1605.714,699.7091 1605.182,699.4127 1604.6297,699.1058 C1603.5251,698.4922 1602.3393,697.837 1601.0757,697.1435 C1598.5485,695.7565 1595.7102,694.2161 1592.5881,692.547 C1580.1,685.8709 1563.0725,677.1381 1543.26,667.9437 C1503.635,649.555 1452.87,629.32 1405,620 C1247.51,589.34 1202.91,597.85 1044,620 C1027.43,622.31 1010.4886,625.307 993.5087,628.7908 C989.2637,629.6618 985.0164,630.5631 980.7718,631.4918 C978.6495,631.9561 976.5279,632.4273 974.4077,632.9049 " fill="none" id="AccountInfo-to-SearchLoggedIn" style="stroke:#A80036;stroke-width:1.0;"/><polygon fill="#A80036" points="974.4077,632.9049,984.0667,634.8294,979.2855,631.8061,982.3087,627.0249,974.4077,632.9049" style="stroke:#A80036;stroke-width:1.0;"/><text fill="#000000" font-family="sans-serif" font-size="13" lengthAdjust="spacing" textLength="232" x="1220" y="605.0669">Enter search query then click search</text><!--MD5=[eb1c2f3d72c3a4e95fb181234bf0e05a]
link CreatePost to SearchLoggedIn--><path d="M2593.1084,525.969 C2592.8013,526.0023 2592.4865,526.0364 2592.1641,526.0713 C2591.5192,526.1412 2590.8436,526.2142 2590.1377,526.2905 C2588.726,526.4431 2587.1928,526.6085 2585.5409,526.7863 C2582.2369,527.1419 2578.4576,527.5472 2574.223,527.9992 C2557.2846,529.8071 2533.0615,532.3618 2502.8373,535.4686 C2442.3891,541.6822 2357.9369,550.1044 2259.7513,559.1788 C2063.38,577.3275 1812.075,598.085 1588,609 C1527.62,611.94 1103.78,608.03 1044,617 C1027.1588,619.5263 1009.935,622.748 992.6779,626.4558 C984.0493,628.3097 975.4124,630.2851 966.8108,632.3558 C966.2732,632.4853 965.7357,632.615 965.1984,632.7452 " fill="none" id="CreatePost-to-SearchLoggedIn" style="stroke:#A80036;stroke-width:1.0;"/><polygon fill="#A80036" points="965.1984,632.7452,974.8872,634.5139,970.0579,631.568,973.0037,626.7387,965.1984,632.7452" style="stroke:#A80036;stroke-width:1.0;"/><text fill="#000000" font-family="sans-serif" font-size="13" lengthAdjust="spacing" textLength="232" x="1839" y="605.0669">Enter search query then click search</text><!--MD5=[bff4e6d3c7b7624c9ed39251431a3cdb]
link SearchLoggedIn to SearchLoggedIn--><path d="M1396,704.66 C1407.87,690.5 1431.08,690.61 1431.08,705 C1431.08,719.39 1407.87,719.5 1396,705.34 " fill="none" id="SearchLoggedIn-to-SearchLoggedIn" style="stroke:#A80036;stroke-width:1.0;"/><polygon fill="#A80036" points="1396,705.34,1398.7163,714.8069,1399.2121,709.1718,1404.8472,709.6675,1396,705.34" style="stroke:#A80036;stroke-width:1.0;"/><text fill="#000000" font-family="sans-serif" font-size="13" lengthAdjust="spacing" textLength="261" x="1437.08" y="709.5669">Enter new search query then click search</text><!--MD5=[6ce2a90a40fc7cefc11a7989c309f452]
link SearchLoggedOut to SearchLoggedOut--><path d="M680,523.56 C691.87,505 715.08,505.15 715.08,524 C715.08,542.85 691.87,543 680,524.44 " fill="none" id="SearchLoggedOut-to-SearchLoggedOut" style="stroke:#A80036;stroke-width:1.0;"/><polygon fill="#A80036" points="680,524.44,681.4793,534.1771,682.6939,528.6522,688.2188,529.8669,680,524.44" style="stroke:#A80036;stroke-width:1.0;"/><text fill="#000000" font-family="sans-serif" font-size="13" lengthAdjust="spacing" textLength="261" x="721.08" y="528.5669">Enter new search query then click search</text><!--MD5=[2cfa1d9e31d60ab689a5a3722eaa95f8]
@startuml
hide empty description

[*] - -> HomePage

state HomePage {
  [*] - -> LoggedOut
  LoggedOut - -> ModalLoginFromLogin: Click Log In
  LoggedOut - -> ModalLoginFromSell: Click "Sell your used textbooks!"
  ModalLoginFromLogin - -> LoggedIn: Enter MacID, click login, then access the Magic Link
  ModalLoginFromSell - -> CreatePost: Enter MacID, click login, then access the Magic Link
  LoggedOut - -> SearchLoggedOut: Enter search query and click search
  LoggedIn - -> SearchLoggedIn: Enter search query and click search
  LoggedIn - -> CreatePost: Click "Sell your used textbooks!"
  LoggedIn - -> AccountInfo: Click profile picture
}

state CreatePost {
  [*] - -> ScanOrType
  ScanOrType - -> IsThisYourBook: Type in ISBN
  ScanOrType - -> Scanning: Click "Scan Barcode"
  Scanning - -> IsThisYourBook: Computer scans the textbook barcode
  IsThisYourBook - -> UploadBookCover: Click "Yes"
  IsThisYourBook - -> ScanOrType: Click "No"
  UploadBookCover - -> SetPrice: Upload a photo of the book cover
  SetPrice - -> PostCreated: Enter description and asking price
  PostCreated - -> AccountInfo: Click "Go to my posts"
}

state SearchLoggedOut {
  [*] - -> SearchResultsLoggedOut
  SearchResultsLoggedOut - -> CourseLoggedOut: Click on a course
  SearchResultsLoggedOut - -> BookLoggedOut: Click on a book
  SearchResultsLoggedOut - -> ViewPostingModalLogin: Click on a posting
  BookLoggedOut - -> ViewPostingModalLogin: Click on a posting
  CourseLoggedOut - -> BookLoggedOut: Click on a book
  ViewPostingModalLogin: User needs to be logged in
  ViewPostingModalLogin: to view a posting since they will
  ViewPostingModalLogin: be able to see other user's
  ViewPostingModalLogin: contact information.
  ViewPostingModalLogin - -> PostingLoggedIn: Enter MacID, click login, then access the Magic Link
}

state SearchLoggedIn {
  [*] - -> SearchResults
  state PostingLoggedIn {
  }
  SearchResults - -> CourseLoggedIn: Click on a course
  SearchResults - -> BookLoggedIn: Click on a book
  SearchResults - -> PostingLoggedIn: Click on a posting
  BookLoggedIn - -> PostingLoggedIn: Click on a posting
  CourseLoggedIn - -> BookLoggedIn: Click on a book
}

state AccountInfo {
  [*] - -> AccountOverview
  AccountOverview - -> AccountOverview: Click "Delete" on one of your posts
  AccountOverview - -> EditPost: Click "Edit" on one of your posts
  EditPost - -> AccountOverview: Click "Save Changes"
  EditPost - -> AccountOverview: Click "Cancel Changes"

  AccountOverview - -> ModalDeleteAccount: Click "Delete Account"
  ModalDeleteAccount - -> AccountOverview: Click "No"
  ModalDeleteAccount - -> AccountDeleted: Click "Yes"
  AccountDeleted - -> HomePage: Click "Return to home page"
}

CreatePost - -> AccountInfo: Click profile picture
SearchLoggedIn - -> AccountInfo: Click profile picture

CreatePost - -> SearchLoggedIn: Enter search query then click search
AccountInfo - -> SearchLoggedIn: Enter search query then click search
SearchLoggedIn - -> SearchLoggedIn: Enter new search query then click search

SearchLoggedOut - -> SearchLoggedOut: Enter new search query then click search
@enduml

PlantUML version 1.2021.16(Wed Dec 08 17:25:22 UTC 2021)
(GPL source distribution)
Java Runtime: OpenJDK Runtime Environment
JVM: OpenJDK 64-Bit Server VM
Default Encoding: UTF-8
Language: en
Country: null
--></g></svg>