<svg width="138" height="139" viewBox="0 0 138 139" fill="none" xmlns="http://www.w3.org/2000/svg">
<path fill-rule="evenodd" clip-rule="evenodd" d="M50.1168 20.9019C29.2034 23.8127 11.9489 26.2284 11.7735 26.2702C9.72834 26.757 7.59101 28.4201 6.25868 30.5614C4.73967 33.0029 4.00129 36.6452 4.21181 40.6586C4.51474 46.4346 5.89802 50.5455 8.43605 53.2127C8.7624 53.5556 8.90672 53.7466 8.85387 53.7656C8.80948 53.7816 7.43246 54.1978 5.79386 54.6905C4.15526 55.1831 2.77752 55.607 2.73224 55.6322C2.68689 55.6576 2.54735 55.8478 2.4221 56.0549C2.03616 56.6933 2.04027 57.1956 2.43628 57.7887C2.87143 58.4404 3.9333 59.0913 5.54032 59.6915C6.4748 60.0405 6.84149 60.2714 7.51224 60.9334C8.9781 62.3801 9.80974 64.7479 10.0599 68.1871C10.1803 69.8422 10.0003 73.7791 9.79544 73.9723C9.75754 74.008 9.3243 74.1519 8.83271 74.292C7.52922 74.6635 4.73646 75.5944 3.73816 75.99C1.44376 76.8999 0.12889 77.743 0.00912307 78.3818C-0.0427759 78.6583 0.129188 78.9324 0.462926 79.104C0.609446 79.1797 1.39961 79.4025 2.21885 79.5997C3.03809 79.797 3.75133 79.9715 3.80382 79.9876C3.8761 80.0103 3.80579 80.1139 3.5146 80.4154C1.64111 82.3544 0.537825 84.9588 0.12454 88.4166C-0.00231734 89.4778 -0.0182863 92.1955 0.0947475 93.4814C0.578165 98.9787 2.0311 102.806 4.55115 105.22C5.50225 106.131 6.59731 106.786 7.64208 107.069C7.90366 107.14 19.2879 110.827 32.9404 115.263L57.763 123.328L95.4095 114.211C116.115 109.197 133.139 105.052 133.241 105.001C133.661 104.789 133.837 104.521 133.772 104.192C133.718 103.921 133.124 103.351 132.528 102.998C131.164 102.19 128.455 101.166 124.938 100.128C124.431 99.9786 123.999 99.8361 123.977 99.8117C123.923 99.7515 123.822 98.8881 123.738 97.7715C123.648 96.5673 123.701 93.6982 123.831 92.7663C124.077 91.0044 124.413 89.802 124.992 88.618C125.746 87.0777 126.78 86.0594 128.034 85.6226C129.399 85.1471 130.574 84.5054 131.09 83.9548C131.757 83.2416 131.822 82.5635 131.299 81.7919C131.078 81.4654 131.149 81.4945 128.987 80.848C128.413 80.6764 127.923 80.5179 127.898 80.4953C127.873 80.4727 128.047 80.3219 128.283 80.1598C129.15 79.5681 130.125 78.5284 130.849 77.4231C131.317 76.7086 132.012 75.2804 132.355 74.3244C132.91 72.7823 133.396 70.5224 133.6 68.538C134.195 62.7479 133.337 58.4249 130.998 55.4148C130.835 55.2066 130.726 55.0152 130.754 54.9896C130.782 54.9639 132.265 54.5899 134.052 54.1583C137.477 53.3305 137.714 53.2528 137.9 52.8939C138.185 52.3423 137.554 51.7011 135.929 50.8899C134.554 50.204 131.95 49.2605 129.315 48.4938C128.725 48.3222 128.212 48.1455 128.177 48.1012C128.046 47.9393 127.856 45.5237 127.856 44.0252C127.855 41.1274 128.277 38.8132 129.134 37.0155C129.512 36.2221 129.818 35.7582 130.315 35.2268C130.909 34.5923 131.491 34.1899 132.145 33.962C132.949 33.6817 133.913 33.2422 134.431 32.9196C135.09 32.5084 135.449 32.1595 135.667 31.7167C135.833 31.3799 135.852 31.2909 135.825 30.987C135.794 30.6486 135.609 30.2078 135.375 29.9129C135.282 29.7954 131.568 28.6593 111.852 22.7166C98.9745 18.8354 88.3718 15.6486 88.2902 15.6348C88.208 15.6209 71.0301 17.9911 50.1168 20.9019ZM31.4156 37.646C41.28 40.8624 52.3271 44.4634 55.9648 45.6481C59.6028 46.8328 62.5892 47.8093 62.6011 47.8179C62.6369 47.8429 62.134 63.7414 62.0857 64.1087L62.0428 64.4396L44.6734 59.568C16.5011 51.6666 13.6661 50.8756 13.5207 50.8765C13.2313 50.8785 12.4515 50.56 11.9834 50.2486C10.1735 49.0446 9.04478 46.4322 8.61237 42.4461C8.49075 41.3253 8.5097 38.0427 8.64294 37.143C9.04335 34.4393 9.85913 32.8707 11.2432 32.1434C11.8029 31.8493 12.2757 31.747 12.9441 31.7752C13.4691 31.7974 13.8563 31.9205 31.4156 37.646ZM126.764 35.7824C125.365 38.5762 124.877 42.8973 125.422 47.6599C125.491 48.2662 125.551 48.8945 125.554 49.0562L125.561 49.3503L124.965 49.4963C124.637 49.5766 110.964 52.9762 94.5795 57.0508C78.1952 61.1255 64.7778 64.4473 64.7629 64.4325C64.723 64.3924 65.2515 48.0801 65.295 48.0095C65.3152 47.9761 67.421 47.5203 69.9736 46.9965C72.5263 46.4726 85.4212 43.8219 98.6283 41.106C111.835 38.39 123.607 35.9698 124.786 35.7278C125.966 35.4857 126.939 35.3074 126.949 35.3315C126.959 35.3555 126.876 35.5584 126.764 35.7824ZM125.857 57.7007C127.739 58.0993 128.842 59.7679 129.322 62.9409C129.376 63.2949 129.426 64.1844 129.446 65.1184C129.544 69.8052 128.644 73.3854 126.877 75.3495C126.264 76.03 125.363 76.5591 124.574 76.7003C124.33 76.7438 121.918 77.4016 119.215 78.1619C116.511 78.9216 105.665 81.9629 95.1127 84.9195L75.9262 90.2953L75.8809 89.7281C75.8297 89.081 75.3399 73.6962 75.3703 73.6732C75.4019 73.6489 124.417 57.6792 124.548 57.6506C124.812 57.5927 125.466 57.6177 125.857 57.7007ZM13.9869 61.7461C15.5108 62.0572 26.1557 64.2454 37.6423 66.6088C49.1289 68.9722 61.7151 71.5605 65.6114 72.3604C69.5077 73.1603 72.7003 73.8221 72.7062 73.8313C72.7306 73.8667 73.23 90.2685 73.2073 90.2912C73.1865 90.3114 61.8414 87.4966 22.0498 77.5965C15.5724 75.9847 12.3341 75.1542 12.3495 75.1084C12.3621 75.0704 12.4139 74.7042 12.4645 74.2946C12.8186 71.4279 12.8596 68.8324 12.5856 66.6193C12.3534 64.7435 11.8969 63.0714 11.2381 61.6833C10.975 61.1291 10.9697 61.1068 11.1119 61.1494C11.1692 61.1666 12.463 61.4352 13.9869 61.7461ZM33.8586 91.5115C47.3607 95.9142 58.4144 99.5215 58.4224 99.5275C58.4496 99.5478 57.9002 116.085 57.8714 116.114C57.8556 116.13 46.9227 113.084 33.5761 109.345C20.2294 105.607 9.18689 102.532 9.03721 102.512C8.44773 102.432 7.5297 101.869 6.9258 101.217C5.37229 99.54 4.49329 96.6269 4.33986 92.6472C4.15323 87.8064 5.09278 84.8188 7.121 83.8035C7.60817 83.5598 8.04547 83.474 8.71354 83.4913L9.3094 83.5062L33.8586 91.5115ZM122.79 87.0086C122.79 87.0205 122.657 87.3089 122.495 87.6491C121.084 90.6022 120.669 94.9263 121.305 100.027C121.372 100.562 121.417 101.012 121.404 101.024C121.349 101.079 60.6092 116.162 60.5752 116.13C60.5347 116.09 61.0471 99.7301 61.0906 99.6866C61.1049 99.6723 64.0335 99.058 67.598 98.3215L74.0791 96.9832L74.9729 97.2001C75.4644 97.3187 75.928 97.4158 76.0025 97.4152C76.0776 97.4146 77.7537 96.8908 79.7266 96.2521L83.3148 95.0896L101.28 91.3988C111.16 89.3688 120.009 87.5484 120.943 87.3542C122.696 86.9889 122.79 86.971 122.79 87.0086Z" fill="#319795"/>
<path fill-rule="evenodd" clip-rule="evenodd" d="M31.4156 37.646C41.28 40.8624 52.3272 44.4634 55.9649 45.6481C59.6028 46.8328 62.5892 47.8093 62.6011 47.8179C62.6369 47.8429 62.134 63.7414 62.0857 64.1087L62.0428 64.4396L44.6734 59.568C16.5011 51.6666 13.6661 50.8756 13.5207 50.8766C13.2313 50.8785 12.4515 50.56 11.9834 50.2486C10.1735 49.0447 9.04479 46.4322 8.61238 42.4462C8.49076 41.3253 8.50971 38.0427 8.64295 37.143C9.04336 34.4393 9.85915 32.8707 11.2432 32.1434C11.8029 31.8493 12.2757 31.747 12.9441 31.7752C13.4691 31.7975 13.8563 31.9205 31.4156 37.646ZM126.764 35.7824C125.366 38.5762 124.878 42.8973 125.422 47.6599C125.491 48.2662 125.551 48.8945 125.554 49.0562L125.561 49.3503L124.965 49.4963C124.637 49.5766 110.964 52.9762 94.5795 57.0509C78.1953 61.1256 64.7778 64.4473 64.7629 64.4325C64.723 64.3924 65.2515 48.0801 65.295 48.0095C65.3152 47.9761 67.421 47.5203 69.9736 46.9965C72.5263 46.4726 85.4212 43.8219 98.6283 41.106C111.835 38.39 123.607 35.9698 124.786 35.7278C125.966 35.4857 126.939 35.3074 126.949 35.3315C126.959 35.3555 126.876 35.5584 126.764 35.7824ZM125.857 57.7007C127.739 58.0993 128.842 59.7679 129.322 62.9409C129.376 63.2949 129.426 64.1844 129.446 65.1184C129.544 69.8052 128.644 73.3854 126.877 75.3495C126.264 76.03 125.363 76.5591 124.574 76.7003C124.331 76.7438 121.918 77.4016 119.215 78.1619C116.511 78.9217 105.665 81.9629 95.1128 84.9195L75.9262 90.2953L75.8809 89.7281C75.8297 89.081 75.3399 73.6962 75.3703 73.6732C75.4019 73.6489 124.417 57.6792 124.548 57.6506C124.812 57.5927 125.466 57.6178 125.857 57.7007ZM13.9869 61.7461C15.5108 62.0572 26.1557 64.2454 37.6423 66.6088C49.1289 68.9722 61.7151 71.5605 65.6114 72.3604C69.5077 73.1603 72.7003 73.8221 72.7062 73.8313C72.7307 73.8667 73.23 90.2685 73.2073 90.2912C73.1865 90.3114 61.8414 87.4966 22.0498 77.5965C15.5724 75.9847 12.3341 75.1542 12.3495 75.1084C12.3622 75.0704 12.4139 74.7043 12.4645 74.2946C12.8186 71.4279 12.8596 68.8324 12.5856 66.6193C12.3534 64.7435 11.8969 63.0714 11.2381 61.6833C10.975 61.1291 10.9698 61.1068 11.1119 61.1494C11.1693 61.1666 12.463 61.4352 13.9869 61.7461ZM33.8586 91.5115C47.3607 95.9142 58.4144 99.5215 58.4225 99.5275C58.4496 99.5478 57.9002 116.085 57.8714 116.114C57.8556 116.13 46.9228 113.084 33.5761 109.345C20.2294 105.607 9.1869 102.532 9.03722 102.512C8.44774 102.432 7.52971 101.869 6.92581 101.217C5.3723 99.54 4.4933 96.6269 4.33987 92.6472C4.15324 87.8064 5.09279 84.8188 7.12101 83.8035C7.60818 83.5598 8.04548 83.474 8.71355 83.4913L9.30941 83.5062L33.8586 91.5115ZM122.79 87.0086C122.79 87.0205 122.657 87.3089 122.495 87.6491C121.084 90.6022 120.669 94.9263 121.305 100.027C121.372 100.563 121.417 101.012 121.404 101.024C121.349 101.079 60.6092 116.162 60.5752 116.13C60.5347 116.09 61.0471 99.7301 61.0906 99.6866C61.1049 99.6723 64.0336 99.058 67.598 98.3215L74.0791 96.9832L74.9729 97.2001C75.4644 97.3187 75.928 97.4158 76.0025 97.4152C76.0776 97.4146 77.7537 96.8908 79.7266 96.2521L83.3148 95.0896L101.28 91.3989C111.16 89.3688 120.009 87.5484 120.943 87.3542C122.696 86.9889 122.79 86.9711 122.79 87.0086Z" fill="white"/>
</svg>
