<?xml version="1.0" encoding="UTF-8" standalone="no"?><svg xmlns="http://www.w3.org/2000/svg" xmlns:xlink="http://www.w3.org/1999/xlink" contentScriptType="application/ecmascript" contentStyleType="text/css" height="413px" preserveAspectRatio="none" style="width:934px;height:413px;background:#FFFFFF;" version="1.1" viewBox="0 0 934 413" width="934px" zoomAndPan="magnify"><defs><filter height="300%" id="fl24vf87rsuya" width="300%" x="-1" y="-1"><feGaussianBlur result="blurOut" stdDeviation="2.0"/><feColorMatrix in="blurOut" result="blurOut2" type="matrix" values="0 0 0 0 0 0 0 0 0 0 0 0 0 0 0 0 0 0 .4 0"/><feOffset dx="4.0" dy="4.0" in="blurOut2" result="blurOut3"/><feBlend in="SourceGraphic" in2="blurOut3" mode="normal"/></filter></defs><g><!--MD5=[fa6f65bdbfd7c8209d27b893910820c3]
cluster 3rd Party Systems--><rect fill="#FFFFFF" filter="url(#fl24vf87rsuya)" height="250" style="stroke:#000000;stroke-width:1.5;" width="166" x="756.5" y="151"/><text fill="#000000" font-family="sans-serif" font-size="14" font-weight="bold" lengthAdjust="spacing" textLength="150" x="764.5" y="165.9951">3rd Party Systems</text><!--MD5=[b310980dfff5dfd1c1b819d57612fae1]
cluster Book System--><rect fill="#FFFFFF" filter="url(#fl24vf87rsuya)" height="340" style="stroke:#000000;stroke-width:1.5;" width="187" x="301" y="7"/><text fill="#000000" font-family="sans-serif" font-size="14" font-weight="bold" lengthAdjust="spacing" textLength="105" x="342" y="21.9951">Book System</text><!--MD5=[8e9b2d9d80e066cced8e5d90e9bdea61]
entity c--><ellipse cx="839" cy="313" fill="#98FB98" filter="url(#fl24vf87rsuya)" rx="8" ry="8" style="stroke:#008000;stroke-width:2.0;"/><path d="M839,321 L839,348 M826,329 L852,329 M839,348 L826,363 M839,348 L852,363 " fill="none" filter="url(#fl24vf87rsuya)" style="stroke:#008000;stroke-width:2.0;"/><text fill="#008000" font-family="sans-serif" font-size="14" lengthAdjust="spacing" textLength="100" x="789" y="381.9951">Chat Function</text><!--MD5=[f83ae91a690dfc657e1c5fbbd818f13d]
entity a--><ellipse cx="839" cy="196" fill="#98FB98" filter="url(#fl24vf87rsuya)" rx="8" ry="8" style="stroke:#008000;stroke-width:2.0;"/><path d="M839,204 L839,231 M826,212 L852,212 M839,231 L826,246 M839,231 L852,246 " fill="none" filter="url(#fl24vf87rsuya)" style="stroke:#008000;stroke-width:2.0;"/><text fill="#008000" font-family="sans-serif" font-size="14" lengthAdjust="spacing" textLength="101" x="788.5" y="264.9951">Authenticator</text><ellipse cx="394.3536" cy="312.8707" fill="#FEFECE" filter="url(#fl24vf87rsuya)" rx="77.3536" ry="17.8707" style="stroke:#A80036;stroke-width:1.5;"/><text fill="#000000" font-family="sans-serif" font-size="14" lengthAdjust="spacing" textLength="112" x="335.6333" y="316.5454">Negotiate Price</text><ellipse cx="394.464" cy="58.1928" fill="#FEFECE" filter="url(#fl24vf87rsuya)" rx="68.964" ry="16.1928" style="stroke:#A80036;stroke-width:1.5;"/><text fill="#000000" font-family="sans-serif" font-size="14" lengthAdjust="spacing" textLength="90" x="346.464" y="61.9404">Search Book</text><ellipse cx="394.5529" cy="142.2106" fill="#FEFECE" filter="url(#fl24vf87rsuya)" rx="71.5529" ry="16.7106" style="stroke:#A80036;stroke-width:1.5;"/><text fill="#000000" font-family="sans-serif" font-size="14" lengthAdjust="spacing" textLength="97" x="343.0529" y="145.9581">Make Listings</text><ellipse cx="394.3049" cy="227.061" fill="#FEFECE" filter="url(#fl24vf87rsuya)" rx="70.8049" ry="16.561" style="stroke:#A80036;stroke-width:1.5;"/><text fill="#000000" font-family="sans-serif" font-size="14" lengthAdjust="spacing" textLength="95" x="343.8049" y="230.8085">Authenticate</text><!--MD5=[5d12e840fb55afd9ed7b3559a638e8f7]
entity b--><ellipse cx="26.5" cy="72" fill="#FFC0CB" filter="url(#fl24vf87rsuya)" rx="8" ry="8" style="stroke:#FF0000;stroke-width:2.0;"/><path d="M26.5,80 L26.5,107 M13.5,88 L39.5,88 M26.5,107 L13.5,122 M26.5,107 L39.5,122 " fill="none" filter="url(#fl24vf87rsuya)" style="stroke:#FF0000;stroke-width:2.0;"/><text fill="#FF0000" font-family="sans-serif" font-size="14" lengthAdjust="spacing" textLength="41" x="6" y="140.9951">Buyer</text><!--MD5=[d8322213e5f4465576b8bf70cd9bce59]
entity s--><ellipse cx="26.5" cy="212" fill="#F0F8FF" filter="url(#fl24vf87rsuya)" rx="8" ry="8" style="stroke:#0000FF;stroke-width:2.0;"/><path d="M26.5,220 L26.5,247 M13.5,228 L39.5,228 M26.5,247 L13.5,262 M26.5,247 L39.5,262 " fill="none" filter="url(#fl24vf87rsuya)" style="stroke:#0000FF;stroke-width:2.0;"/><text fill="#0000FF" font-family="sans-serif" font-size="14" lengthAdjust="spacing" textLength="41" x="6" y="280.9951">Seller</text><!--MD5=[f4701ba98286dcf4f3a9e9823e6890d9]
entity ul--><ellipse cx="839" cy="63" fill="#FEFECE" filter="url(#fl24vf87rsuya)" rx="8" ry="8" style="stroke:#A80036;stroke-width:1.5;"/><path d="M839,71 L839,98 M826,79 L852,79 M839,98 L826,113 M839,98 L852,113 " fill="none" filter="url(#fl24vf87rsuya)" style="stroke:#A80036;stroke-width:1.5;"/><text fill="#000000" font-family="sans-serif" font-size="14" lengthAdjust="spacing" textLength="130" x="774" y="131.4951">University Listings</text><!--MD5=[92b1a8fc73d4251569466f7f2767744d]
link s to Negotiate Price--><path d="M47.1777,246.764 C100.6307,256.987 250.132,285.58 334.187,301.656 " fill="none" id="s-Negotiate Price" style="stroke:#0000FF;stroke-width:1.0;"/><!--MD5=[6690495d888f31ccc6468b563f15ff8b]
link b to Search Book--><path d="M47.1777,100.581 C99.3683,94.164 243.124,76.489 328.124,66.038 " fill="none" id="b-to-Search Book" style="stroke:#FF0000;stroke-width:1.0;"/><polygon fill="#FF0000" points="333.133,65.422,323.7122,62.5498,328.1703,66.032,324.6882,70.4901,333.133,65.422" style="stroke:#FF0000;stroke-width:1.0;"/><text fill="#000000" font-family="sans-serif" font-size="13" lengthAdjust="spacing" textLength="169" x="94.5" y="53.0669">Searchs or uploads course</text><text fill="#000000" font-family="sans-serif" font-size="13" lengthAdjust="spacing" textLength="44" x="161" y="68.1997">listings</text><!--MD5=[5385a7ea4ba9da217aef0e098aff12a1]
link Search Book to Make Listings--><path d="M394.5,74.275 C394.5,87.389 394.5,105.943 394.5,120.316 " fill="none" id="Search Book-to-Make Listings" style="stroke:#A80036;stroke-width:1.0;stroke-dasharray:7.0,7.0;"/><polygon fill="#A80036" points="394.5,125.404,398.5,116.404,394.5,120.404,390.5,116.404,394.5,125.404" style="stroke:#A80036;stroke-width:1.0;"/><text fill="#000000" font-family="sans-serif" font-size="13" lengthAdjust="spacing" textLength="72" x="347" y="104.3169">&lt;includes&gt;</text><!--MD5=[5136d8a12d2581110ce12924e27c27e4]
link s to Make Listings--><path d="M47.0128,243.563 C100.5641,244.712 248.278,245.109 285,216 C293.481,209.277 285.88,201.151 293,193 C307.12,176.834 327.594,165.158 346.383,157.092 " fill="none" id="s-to-Make Listings" style="stroke:#0000FF;stroke-width:1.0;"/><polygon fill="#0000FF" points="351.119,155.119,341.2728,154.8887,346.5037,157.0423,344.3501,162.2731,351.119,155.119" style="stroke:#0000FF;stroke-width:1.0;"/><text fill="#000000" font-family="sans-serif" font-size="13" lengthAdjust="spacing" textLength="206" x="78" y="211.0669">Makes posts about selling books</text><!--MD5=[20a356a2f2a1655f676e53c3dc8a4957]
link Authenticate to Make Listings--><path d="M394.5,210.207 C394.5,196.935 394.5,178.306 394.5,163.87 " fill="none" id="Authenticate-to-Make Listings" style="stroke:#A80036;stroke-width:1.0;stroke-dasharray:7.0,7.0;"/><polygon fill="#A80036" points="394.5,158.758,390.5,167.758,394.5,163.758,398.5,167.758,394.5,158.758" style="stroke:#A80036;stroke-width:1.0;"/><text fill="#000000" font-family="sans-serif" font-size="13" lengthAdjust="spacing" textLength="72" x="347" y="189.0669">&lt;extends&gt;</text><!--MD5=[00d50b3aa09a69a2a1c3ff8f2b24c69b]
reverse link Make Listings to ul--><path d="M464.836,134.479 C549.545,125.29 691.701,109.87 773.938,100.949 " fill="none" id="Make Listings-backto-ul" style="stroke:#A80036;stroke-width:1.0;"/><polygon fill="#A80036" points="459.843,135.02,469.2223,138.0247,464.8138,134.4801,468.3584,130.0715,459.843,135.02" style="stroke:#A80036;stroke-width:1.0;"/><!--MD5=[07df7761517823610c380aa64502cac7]
link b to Negotiate Price--><path d="M47.2022,110.713 C56.2563,114.218 67.1497,118.382 77,122 C168.965,155.78 223.629,118.631 285,195 C303.509,218.032 276.146,236.73 293,261 C304.369,277.372 322.513,288.934 340.275,296.928 " fill="none" id="b-to-Negotiate Price" style="stroke:#FF0000;stroke-width:1.0;"/><polygon fill="#FF0000" points="345.269,299.089,338.5971,291.8443,340.68,297.1037,335.4206,299.1867,345.269,299.089" style="stroke:#FF0000;stroke-width:1.0;"/><text fill="#000000" font-family="sans-serif" font-size="13" lengthAdjust="spacing" textLength="176" x="93" y="118.0669">Contacts seller if interested</text><!--MD5=[a0b7d4c042e926ef39c2abf321d3a200]
link Negotiate Price to Authenticate--><path d="M394.5,294.762 C394.5,281.324 394.5,262.993 394.5,248.785 " fill="none" id="Negotiate Price-to-Authenticate" style="stroke:#A80036;stroke-width:1.0;stroke-dasharray:7.0,7.0;"/><polygon fill="#A80036" points="394.5,243.754,390.5,252.754,394.5,248.754,398.5,252.754,394.5,243.754" style="stroke:#A80036;stroke-width:1.0;"/><text fill="#000000" font-family="sans-serif" font-size="13" lengthAdjust="spacing" textLength="72" x="347" y="273.8169">&lt;includes&gt;</text><!--MD5=[bed41188967770257533b8bda993b55e]
link Negotiate Price to c--><path d="M469.067,318.1538 C559.75,324.5068 711.351,335.1274 788.96,340.5644 " fill="none" id="Negotiate Price-c" style="stroke:#008000;stroke-width:1.0;"/><text fill="#000000" font-family="sans-serif" font-size="13" lengthAdjust="spacing" textLength="157" x="537.5" y="317.0669">Outsourced chat feature</text><!--MD5=[c8d437ffff4f33e8b9d360ae6634f985]
link Authenticate to a--><path d="M465.615,227 C555.662,227 709.685,227 788.445,227 " fill="none" id="Authenticate-a" style="stroke:#008000;stroke-width:1.0;"/><text fill="#000000" font-family="sans-serif" font-size="13" lengthAdjust="spacing" textLength="222" x="505" y="223.0669">Outsourced authenticating system</text><!--MD5=[cd230d984b2ba44dd4f2f218c2588877]
@startuml
left to right direction
skinparam packageStyle rectangle

actor Buyer as b #pink;line:red;line.bold;text:red
actor Seller as s #aliceblue;line:blue;line.bold;text:blue
actor "University Listings" as ul

package "3rd Party Systems"{
actor "Chat Function" as c #palegreen;line:green;line.bold;text:green
actor Authenticator as a #palegreen;line:green;line.bold;text:green
}
rectangle "Book System" {
  s- - (Negotiate Price) #line:blue
  b - ->(Search Book) #line:red : Searchs or uploads course \n listings
  (Search Book) .> (Make Listings) : <includes>
  s - ->(Make Listings) #line:blue : Makes posts about selling books
  (Authenticate) .> (Make Listings) : <extends>
  (Make Listings) <- - ul
  b - -> (Negotiate Price) #line:red : Contacts seller if interested
  (Negotiate Price) .> (Authenticate) : <includes>

  (Negotiate Price)- -c  #line:green : Outsourced chat feature
  (Authenticate) - - a #line:green : Outsourced authenticating system 
  }
@enduml

PlantUML version 1.2021.13beta3(Unknown compile time)
(GPL source distribution)
Java Runtime: Java(TM) SE Runtime Environment
JVM: Java HotSpot(TM) 64-Bit Server VM
Default Encoding: UTF-8
Language: en
Country: US
--></g></svg>